<?xml version="1.0" standalone="no"?><svg xmlns="http://www.w3.org/2000/svg" viewBox="0 0 1440 320"><path fill="#000b76" fill-opacity="1" d="M0,224L34.3,224C68.6,224,137,224,206,186.7C274.3,149,343,75,411,53.3C480,32,549,64,617,112C685.7,160,754,224,823,229.3C891.4,235,960,181,1029,176C1097.1,171,1166,213,1234,197.3C1302.9,181,1371,107,1406,69.3L1440,32L1440,320L1405.7,320C1371.4,320,1303,320,1234,320C1165.7,320,1097,320,1029,320C960,320,891,320,823,320C754.3,320,686,320,617,320C548.6,320,480,320,411,320C342.9,320,274,320,206,320C137.1,320,69,320,34,320L0,320Z"></path></svg>