<?xml version="1.0" standalone="no"?><svg xmlns="http://www.w3.org/2000/svg" viewBox="0 0 1440 320"><path fill="#a2d9ff" fill-opacity="1" d="M0,224L34.3,224C68.6,224,137,224,206,186.7C274.3,149,343,75,411,53.3C480,32,549,64,617,112C685.7,160,754,224,823,229.3C891.4,235,960,181,1029,176C1097.1,171,1166,213,1234,197.3C1302.9,181,1371,107,1406,69.3L1440,32L1440,0L1405.7,0C1371.4,0,1303,0,1234,0C1165.7,0,1097,0,1029,0C960,0,891,0,823,0C754.3,0,686,0,617,0C548.6,0,480,0,411,0C342.9,0,274,0,206,0C137.1,0,69,0,34,0L0,0Z"></path></svg>