<?xml version="1.0" standalone="no"?><svg xmlns="http://www.w3.org/2000/svg" viewBox="0 0 1440 320"><path fill="#a2d9ff" fill-opacity="1" d="M0,160L34.3,160C68.6,160,137,160,206,138.7C274.3,117,343,75,411,48C480,21,549,11,617,37.3C685.7,64,754,128,823,133.3C891.4,139,960,85,1029,74.7C1097.1,64,1166,96,1234,138.7C1302.9,181,1371,235,1406,261.3L1440,288L1440,320L1405.7,320C1371.4,320,1303,320,1234,320C1165.7,320,1097,320,1029,320C960,320,891,320,823,320C754.3,320,686,320,617,320C548.6,320,480,320,411,320C342.9,320,274,320,206,320C137.1,320,69,320,34,320L0,320Z"></path></svg>