<?xml version="1.0" standalone="no"?><svg xmlns="http://www.w3.org/2000/svg" viewBox="0 0 1440 320"><path fill="#000b76" fill-opacity="1" d="M0,320L40,277.3C80,235,160,149,240,128C320,107,400,149,480,165.3C560,181,640,171,720,149.3C800,128,880,96,960,69.3C1040,43,1120,21,1200,21.3C1280,21,1360,43,1400,53.3L1440,64L1440,320L1400,320C1360,320,1280,320,1200,320C1120,320,1040,320,960,320C880,320,800,320,720,320C640,320,560,320,480,320C400,320,320,320,240,320C160,320,80,320,40,320L0,320Z"></path></svg>