<?xml version="1.0" standalone="no"?>
<svg viewBox="0 0 200 200" xmlns="http://www.w3.org/2000/svg">
  <path fill="#08BDBA" d="M48.6,-76.5C62,-66.9,71.4,-51.9,78.7,-35.9C86,-20,91.2,-3.1,89,12.9C86.9,28.8,77.4,43.8,65.6,56.1C53.8,68.3,39.7,77.8,23.8,83.7C7.9,89.5,-9.9,91.9,-26.4,87.9C-42.9,84,-58.2,73.8,-69.6,60.4C-81.1,47,-88.8,30.4,-91,13.2C-93.3,-4,-90.2,-21.9,-82.9,-37.9C-75.6,-53.8,-64.1,-67.8,-49.6,-76.9C-35.1,-86,-17.5,-90.1,0,-90.1C17.5,-90.1,35.1,-86,48.6,-76.5Z" transform="translate(100 100)" />
</svg>
