<?xml version="1.0" standalone="no"?>
<svg viewBox="0 0 200 200" xmlns="http://www.w3.org/2000/svg">
  <path fill="#08BDBA" d="M39.5,-57.9C52.1,-53.4,63.7,-43.9,70.8,-31.4C77.9,-19,80.5,-3.5,74.7,8.1C68.9,19.7,54.8,27.5,43.9,35.6C33,43.7,25.4,52.1,14.6,59.9C3.8,67.7,-10.1,74.8,-24.6,74.7C-39.1,74.6,-54.2,67.3,-62,55.4C-69.9,43.4,-70.5,26.8,-72.5,10.7C-74.4,-5.5,-77.7,-21.2,-72.2,-32.9C-66.7,-44.5,-52.5,-52,-39,-56C-25.5,-60.1,-12.7,-60.7,0.4,-61.2C13.5,-61.8,26.9,-62.3,39.5,-57.9Z" transform="translate(100 100)" />
</svg>
