<?xml version="1.0" standalone="no"?>
<svg viewBox="0 0 200 200" xmlns="http://www.w3.org/2000/svg">
  <path fill="#8A3FFC" d="M32.3,-30.6C47.6,-33.4,69.7,-31.6,73.3,-23.2C76.8,-14.8,61.8,0.2,52.1,12.8C42.3,25.5,37.9,35.7,30.1,36.7C22.3,37.8,11.1,29.7,-1.2,31.3C-13.4,32.8,-26.9,44.2,-32.3,42.3C-37.6,40.5,-35,25.5,-36.8,13.5C-38.6,1.5,-44.8,-7.6,-44.6,-16.4C-44.4,-25.3,-37.7,-34,-29.2,-33.4C-20.7,-32.7,-10.3,-22.7,-0.9,-21.5C8.5,-20.2,17,-27.7,32.3,-30.6Z" transform="translate(100 100)" />
</svg>
